<svg enable-background="new 0 0 131 46" viewBox="0 0 131 46" xmlns="http://www.w3.org/2000/svg"><g clip-rule="evenodd" fill-rule="evenodd"><g fill="#191919"><path d="m122.13 10.87h5.73v4.77h-5.73v12.32c.02 1.56 1.3 2.83 2.87 2.83.77 0 1.48-.31 1.99-.81l3.38 3.37c-1.38 1.37-3.28 2.21-5.37 2.21-4.2 0-7.6-3.39-7.63-7.58v-24.41h4.77z"/><path d="m75.14 30.8c-2.73 0-5.13-1.41-6.51-3.54l18.99-5.1c-.45-6.5-5.87-11.64-12.49-11.64-6.92 0-12.52 5.61-12.52 12.52s5.61 12.52 12.52 12.52c4.64 0 8.69-2.52 10.85-6.27l-4.12-2.39c-1.33 2.33-3.84 3.9-6.72 3.9zm0-15.51c2.73 0 5.13 1.41 6.51 3.54l-14.25 3.82c.21-4.1 3.59-7.36 7.74-7.36z"/><path d="m58.64 21.38v13.83h-4.77v-13.81c0-3.37-2.73-6.11-6.11-6.11-3.37 0-6.1 2.73-6.1 6.11v13.81h-4.76v-24.34h4.77v1.52c1.74-1.18 3.84-1.88 6.11-1.88 5.99.01 10.85 4.87 10.86 10.87z"/><path d="m29.3 6.4c-1.58 0-2.87-1.28-2.87-2.87 0-1.58 1.28-2.87 2.87-2.87 1.58 0 2.87 1.28 2.87 2.87-.01 1.59-1.29 2.87-2.87 2.87z"/><path d="m31.66 10.88v24.34h-4.76v-19.58h-2.32v-4.77z"/><path d="m88.67 35.21 9.67-12.17-9.66-12.14.01-.01h6.08l6.61 8.32 6.63-8.33h6.08l.01.01-9.67 12.16 9.68 12.17h-6.09l-6.63-8.34-6.63 8.34h-6.09z"/></g><path d="m.37 35.24-.01-.01 9.68-12.17-9.66-12.14h.01 6.08l9.66 12.14-9.68 12.18z" fill="#1688f3"/></g><path d="m17 35h16v11h-16z" fill="none"/></svg>