<svg enable-background="new 0 0 112.04 69.5" viewBox="0 0 112.04 69.5" xmlns="http://www.w3.org/2000/svg"><path clip-rule="evenodd" d="m94.84 39.9h15.01v3.8h-4.51v11.02h-5.99v-11.03h-4.51zm-8.17 9.14 1.82-4.72 1.78 4.72zm-1.49-9.14h6.81l4.7 11.37 1.38 3.44h-5.62l-.68-1.78h-6.51l-.75 1.78h-6.15l5.19-11.32zm-47.32-.02h7.64c.7 4.55 1.22 6.83 1.74 6.85.49 0 1.05-2.27 1.79-6.85h7.56v14.82h-4.96v-9.27l-2.06 9.27h-4.89l-2.06-9.4v9.4h-4.74v-14.82zm-10.58-.26h.29c1.42 0 2.71.21 3.83.63s2.05 1.01 2.79 1.74c.74.74 1.3 1.56 1.67 2.46.37.91.55 1.86.55 2.83v.23c0 .97-.22 1.92-.62 2.83-.4.92-.97 1.74-1.73 2.47-.78.73-1.72 1.3-2.84 1.72-1.13.42-2.39.64-3.77.64h-.71c-1.37 0-2.58-.22-3.68-.64-1.08-.44-1.99-1.02-2.73-1.76-.74-.75-1.3-1.59-1.67-2.52-.37-.94-.56-1.9-.56-2.88l-.05-.05c0-.97.19-1.91.57-2.83.38-.9.97-1.73 1.72-2.47s1.69-1.33 2.83-1.75c1.13-.44 2.42-.64 3.85-.64h.26zm-3.26 7.07c.19-.96.59-1.68 1.15-2.17.59-.49 1.23-.74 1.94-.74.56 0 1.12.15 1.64.44s.96.7 1.28 1.22.48 1.12.48 1.79v.34c0 .73-.15 1.38-.46 1.93-.31.54-.74.96-1.26 1.23-.51.29-1.07.42-1.64.42-.01 0-.03-.01-.07-.03-.03-.01-.05-.03-.07-.03-.53-.01-1.04-.17-1.5-.44-.45-.27-.83-.68-1.11-1.23-.29-.54-.42-1.19-.42-1.96 0-.08 0-.21.01-.38s.03-.31.03-.39zm-21.86-6.81h9.44c1.22 0 2.23.19 3.04.62.81.42 1.39 1.02 1.78 1.69.37.67.56 1.4.56 2.15 0 .92-.23 1.78-.74 2.54-.52.78-1.15 1.22-1.93 1.58l2.57 6.23h-6.12l-2.94-8.35c.57.12 1.22.13 1.45.15.63.03 1.18.03 1.56-.26.38-.27.56-.78.56-1.13 0-.34-.12-.74-.42-1.01-.29-.27-.74-.42-1.27-.42h-1.92v11.03h-5.62zm78.66-4.22c1.55 0 2.8 1.26 2.8 2.81s-1.26 2.8-2.8 2.8-2.81-1.26-2.81-2.8c-.01-1.55 1.26-2.81 2.81-2.81zm0 .29c1.4 0 2.53 1.13 2.53 2.53 0 1.38-1.13 2.53-2.53 2.53-1.39 0-2.53-1.15-2.53-2.53 0-1.4 1.13-2.53 2.53-2.53zm-.48 2.8v1.33h-.72v-3.32h1.3c.33 0 .62.07.85.22.23.14.35.41.35.78 0 .16-.03.31-.09.44-.07.12-.16.22-.27.3-.11.07-.22.14-.34.18l.89 1.41h-.83l-.85-1.33h-.29zm0-1.45h.34c.12 0 .22.01.32.03.08.01.16.06.23.12.05.07.1.17.1.3 0 .3-.19.45-.56.45h-.42v-.9zm-25.75 21.2 9.46 8.17c3.72-.78 6.62-2.04 8.72-3.73 2.48-2.01 4.76-5.26 3.87-10.63-.58-3.52-4.39-7.37-3.81-11.67.55-4.12 5.34-6.86 8.45-6.48l-5.59-4.62c10.29-4.34 20.33-11.5 29.84-20.04-30.21 16.54-61.3 23.84-93.29 23.49 17.02 3.42 32.23 3.53 47.79.88-.42.82-.72 1.69-.92 2.64-.44 2.12.2 4.85 1.9 8.15.26.51.45.9.59 1.15.99 1.63 1.34 2.72 1.49 3.85.12.96.03 1.86-.22 2.73-.45 1.63-1.27 2.73-2.61 3.98-1.56.98-3.21 1.74-5.6 1.6zm-49.46-26.85c35.95 1.78 70.62-6.39 104.11-25.6.15-.14.49-.34.64-.48v-2.74c-33.11 20.27-67.85 27.61-107.58 26.27l-.01 2.28c1.02.15 1.79.19 2.84.27z" fill="#047bc1" fill-rule="evenodd"/></svg>